<svg width="214" height="60" viewBox="0 0 214 60" fill="none" xmlns="http://www.w3.org/2000/svg">
<path fill-rule="evenodd" clip-rule="evenodd" d="M48.1613 17.2383H40.7768C39.7011 7.89045 33.3313 0.407715 25.2847 0.407715C17.2381 0.407715 10.8682 7.89045 9.79258 17.2383H2.40808C1.70233 17.2383 1.0321 17.599 0.574573 18.2249C0.117048 18.8509 -0.0817127 19.6791 0.0308348 20.4907L5.08777 56.957C5.27622 58.316 6.28331 59.3148 7.46502 59.3148H43.1044C44.2861 59.3148 45.2932 58.316 45.4816 56.957L50.5386 20.4907C50.6511 19.6791 50.4524 18.8509 49.9948 18.2249C49.5373 17.599 48.8671 17.2383 48.1613 17.2383ZM5.23636 22.8485H45.333L41.0541 53.7046H9.5153L5.23636 22.8485ZM25.2847 6.01791C20.1939 6.01791 15.6803 10.6881 14.6624 17.2383H35.907C34.8891 10.6881 30.3755 6.01791 25.2847 6.01791Z" fill="black" fill-opacity="0.85"/>
<path d="M35.8192 28.1807C34.9736 27.3373 33.8971 26.7634 32.7255 26.5315C31.554 26.2996 30.34 26.4201 29.2369 26.8779C28.1338 27.3356 27.1911 28.11 26.5279 29.1032C25.8647 30.0964 25.5108 31.2639 25.5108 32.4582C25.5108 33.6525 25.8647 34.8199 26.5279 35.8132C27.1911 36.8064 28.1338 37.5808 29.2369 38.0385C30.34 38.4962 31.554 38.6167 32.7255 38.3849C33.8971 38.153 34.9736 37.5791 35.8192 36.7357C36.3818 36.1745 36.8282 35.5078 37.1328 34.7737C37.4373 34.0397 37.5941 33.2529 37.5941 32.4582C37.5941 31.6635 37.4373 30.8766 37.1328 30.1426C36.8282 29.4086 36.3818 28.7419 35.8192 28.1807ZM28.98 29.8965C29.6592 29.2165 30.5806 28.834 31.5417 28.8332C32.0777 28.8382 32.6059 28.962 33.0883 29.1957L28.255 34.029C27.9325 33.35 27.829 32.5876 27.9589 31.8472C28.0888 31.1068 28.4456 30.4251 28.98 29.8965ZM34.1033 35.0198C33.5738 35.5451 32.8952 35.8943 32.1599 36.0197C31.4247 36.1451 30.6687 36.0407 29.995 35.7207L34.8283 30.8873C35.1509 31.5663 35.2543 32.3288 35.1244 33.0691C34.9946 33.8095 34.6377 34.4912 34.1033 35.0198ZM20.6667 36.0832C19.7228 36.0794 18.7876 36.2621 17.9146 36.6209C17.0416 36.9796 16.248 37.5073 15.5796 38.1736C14.5566 39.1834 13.8569 40.4744 13.5694 41.8828C13.2818 43.2911 13.4194 44.7531 13.9646 46.0831C14.5098 47.4131 15.438 48.551 16.6314 49.3522C17.8247 50.1535 19.2293 50.582 20.6667 50.5832C22.53 50.5822 24.3214 49.8639 25.6692 48.5773L25.8142 48.4807C25.8396 48.4347 25.8678 48.3903 25.8987 48.3478C26.8811 47.322 27.5405 46.0304 27.7952 44.6332C28.0498 43.2359 27.8885 41.7947 27.3312 40.4884C26.7739 39.182 25.8452 38.0681 24.6604 37.285C23.4756 36.5019 22.0869 36.084 20.6667 36.0832ZM17.2471 46.7528C16.4992 45.9966 16.0217 45.0148 15.8884 43.9597C15.7551 42.9045 15.9736 41.8349 16.51 40.9165L23.0833 47.4898C22.1649 48.0262 21.0953 48.2447 20.0402 48.1114C18.985 47.9782 18.0033 47.5006 17.2471 46.7528ZM24.8233 45.7498L18.25 39.1765C18.9819 38.7421 19.8156 38.5087 20.6667 38.4998C21.5126 38.5049 22.3424 38.732 23.0731 39.1583C23.8038 39.5845 24.4099 40.1952 24.8307 40.9291C25.2514 41.663 25.4722 42.4945 25.4709 43.3404C25.4696 44.1864 25.2463 45.0172 24.8233 45.7498Z" fill="#29A867"/>
<path d="M77.116 45H74.764L69.388 37.956H67.636V36.372H69.388L74.692 29.664H76.96L70.888 37.308L70.876 36.816L77.116 45ZM67.792 45H65.812V29.664H67.792V45ZM81.1698 45H79.2378V29.1H81.1698V45ZM86.4078 45H84.4638V33.288H86.4078V45ZM85.4358 31.368C85.0358 31.368 84.7358 31.264 84.5358 31.056C84.3438 30.84 84.2478 30.548 84.2478 30.18V30.12C84.2478 29.744 84.3438 29.452 84.5358 29.244C84.7358 29.036 85.0358 28.932 85.4358 28.932C85.8358 28.932 86.1358 29.036 86.3358 29.244C86.5358 29.452 86.6358 29.744 86.6358 30.12V30.18C86.6358 30.556 86.5358 30.848 86.3358 31.056C86.1358 31.264 85.8358 31.368 85.4358 31.368ZM99.5669 45H97.2389L92.6069 39.54H91.3709V38.028H92.6069L97.0469 33.288H99.3509L94.0349 38.94V38.472L99.5669 45ZM91.5629 45H89.6309V29.1H91.5629V45ZM108.252 45H106.236L111.036 29.664H114.18L118.992 45H116.976L112.764 31.008H112.464L108.252 45ZM116.1 40.476H109.116V38.82H116.1V40.476ZM126.926 45.252C126.206 45.252 125.582 45.132 125.054 44.892C124.526 44.652 124.098 44.308 123.77 43.86C123.442 43.412 123.222 42.892 123.11 42.3H122.474L123.038 40.476C123.07 41.18 123.226 41.768 123.506 42.24C123.794 42.704 124.182 43.052 124.67 43.284C125.158 43.516 125.71 43.632 126.326 43.632C127.31 43.632 128.062 43.344 128.582 42.768C129.11 42.192 129.374 41.348 129.374 40.236V37.992C129.374 36.888 129.114 36.048 128.594 35.472C128.074 34.896 127.318 34.608 126.326 34.608C125.734 34.608 125.21 34.724 124.754 34.956C124.298 35.188 123.918 35.504 123.614 35.904C123.318 36.304 123.114 36.76 123.002 37.272L122.522 35.916H123.086C123.214 35.38 123.43 34.896 123.734 34.464C124.046 34.024 124.47 33.676 125.006 33.42C125.55 33.156 126.218 33.024 127.01 33.024C128.418 33.024 129.49 33.464 130.226 34.344C130.962 35.216 131.33 36.484 131.33 38.148V40.092C131.33 41.772 130.958 43.052 130.214 43.932C129.478 44.812 128.382 45.252 126.926 45.252ZM123.086 49.128H121.154V33.288H123.098L123.014 36.108L123.038 36.708V41.64L123.026 42.036L123.086 45.324V49.128ZM138.701 45.3C137.021 45.3 135.745 44.848 134.873 43.944C134.009 43.032 133.577 41.724 133.577 40.02V38.232C133.577 36.536 134.013 35.236 134.885 34.332C135.757 33.428 137.029 32.976 138.701 32.976C140.381 32.976 141.653 33.428 142.517 34.332C143.389 35.236 143.825 36.536 143.825 38.232V40.02C143.825 41.724 143.389 43.032 142.517 43.944C141.653 44.848 140.381 45.3 138.701 45.3ZM138.701 43.716C139.741 43.716 140.529 43.408 141.065 42.792C141.609 42.176 141.881 41.288 141.881 40.128V38.124C141.881 36.972 141.609 36.092 141.065 35.484C140.529 34.868 139.741 34.56 138.701 34.56C137.669 34.56 136.881 34.868 136.337 35.484C135.793 36.092 135.521 36.972 135.521 38.124V40.128C135.521 41.288 135.793 42.176 136.337 42.792C136.881 43.408 137.669 43.716 138.701 43.716ZM150.68 45.24C149.776 45.24 149.048 45.104 148.496 44.832C147.944 44.56 147.544 44.148 147.296 43.596C147.048 43.044 146.924 42.356 146.924 41.532V34.14H148.844V41.304C148.844 42.072 149.02 42.64 149.372 43.008C149.724 43.368 150.316 43.548 151.148 43.548C151.62 43.548 152.072 43.496 152.504 43.392C152.944 43.288 153.356 43.14 153.74 42.948L153.56 44.616C153.184 44.808 152.744 44.96 152.24 45.072C151.736 45.184 151.216 45.24 150.68 45.24ZM153.44 35.016H145.004V33.456H153.62L153.44 35.016ZM148.796 33.648H146.936L146.924 30.36L148.88 30.108L148.796 33.648ZM157.892 45H155.948V33.288H157.892V45ZM156.92 31.368C156.52 31.368 156.22 31.264 156.02 31.056C155.828 30.84 155.732 30.548 155.732 30.18V30.12C155.732 29.744 155.828 29.452 156.02 29.244C156.22 29.036 156.52 28.932 156.92 28.932C157.32 28.932 157.62 29.036 157.82 29.244C158.02 29.452 158.12 29.744 158.12 30.12V30.18C158.12 30.556 158.02 30.848 157.82 31.056C157.62 31.264 157.32 31.368 156.92 31.368ZM171.051 45H168.723L164.091 39.54H162.855V38.028H164.091L168.531 33.288H170.835L165.519 38.94V38.472L171.051 45ZM163.047 45H161.115V29.1H163.047V45Z" fill="#29A867"/>
</svg>
